<?xml version="1.0" standalone="no"?>
<!DOCTYPE svg PUBLIC "-//W3C//DTD SVG 20010904//EN"
 "http://www.w3.org/TR/2001/REC-SVG-20010904/DTD/svg10.dtd">
<svg version="1.0" xmlns="http://www.w3.org/2000/svg"
 width="280.000000pt" height="49.000000pt" viewBox="0 0 280.000000 49.000000"
 preserveAspectRatio="xMidYMid meet">
<metadata>
Created by potrace 1.10, written by Peter Selinger 2001-2011
</metadata>
<g transform="translate(0.000000,49.000000) scale(0.050000,-0.050000)"
fill="#ffbb00" stroke="none">
<path d="M998 861 c-277 -84 -329 -499 -79 -638 104 -59 291 -76 431 -39 l100
26 6 95 c7 110 10 108 -96 53 -146 -77 -356 -31 -386 83 -10 37 2 39 250 39
l260 0 -14 105 c-32 236 -226 350 -472 276z m231 -165 c58 -83 42 -96 -119
-96 -162 0 -171 7 -109 87 56 71 181 75 228 9z"/>
<path d="M3480 867 c-16 -7 -55 -30 -85 -51 -55 -39 -55 -38 -55 3 0 36 -12
41 -110 41 l-110 0 0 -340 0 -340 110 0 110 0 0 239 c0 264 8 281 136 281 97
0 110 -36 107 -291 l-3 -229 110 0 110 0 0 280 c0 277 0 280 -56 342 -56 63
-189 95 -264 65z"/>
<path d="M4360 867 c-16 -7 -55 -30 -85 -51 -55 -39 -55 -38 -55 3 0 36 -12
41 -110 41 l-110 0 0 -340 0 -340 110 0 110 0 0 239 c0 264 8 281 136 281 98
0 114 -40 113 -293 l0 -227 107 0 107 0 -7 290 c-6 282 -7 291 -59 342 -53 53
-190 82 -257 55z"/>
<path d="M180 520 l0 -340 110 0 110 0 0 238 c0 270 -5 262 172 262 l108 0 0
93 0 92 -79 -10 c-44 -6 -107 -30 -140 -54 l-61 -44 0 52 c0 49 -5 51 -110 51
l-110 0 0 -340z"/>
<path d="M1620 520 l0 -340 110 0 110 0 0 238 c0 270 -5 262 172 262 l108 0 0
93 0 92 -79 -10 c-44 -6 -107 -30 -140 -54 l-61 -44 0 52 c0 49 -5 51 -110 51
l-110 0 0 -340z"/>
<path d="M2244 570 c6 -286 7 -290 61 -345 75 -74 239 -79 333 -9 61 44 62 44
62 5 0 -36 13 -41 110 -41 l110 0 0 340 0 340 -110 0 -110 0 0 -248 c0 -272 0
-272 -128 -272 -103 0 -112 24 -112 284 l0 236 -111 0 -112 0 7 -290z"/>
<path d="M4880 520 l0 -340 110 0 110 0 0 238 c0 270 -5 262 172 262 l108 0 0
93 0 92 -79 -10 c-44 -6 -107 -30 -140 -54 l-61 -44 0 52 c0 49 -5 51 -110 51
l-110 0 0 -340z"/>
</g>
</svg>
